PathFileType	4	(X/Y/Z)	C:\Users\italobelli\Desktop\GitHub\PTbot_officialCBL\Personal_Results\ABD01_noisy1.trc
DataRate	CameraRate	NumFrames	NumMarkers	Units	OrigDataRate	OrigDataStartFrame	OrigNumFrames
104.666667	104.666667	38	9	m	104.666667	551	1100
Frame#	Time		gu		centelbow		EpL		centpxt8		centijc7		ij		ts		aa		ai
			X1	Y1	Z1	X2	Y2	Z2	X3	Y3	Z3	X4	Y4	Z4	X5	Y5	Z5	X6	Y6	Z6	X7	Y7	Z7	X8	Y8	Z8	X9	Y9	Z9

551	5.2548	-0.081628	0.05484	0.12482	-0.10565	0.15034	0.35263	-0.12166	0.17346	0.33718	-0.046816	-0.15316	-0.008669	-0.046816	0.031938	-0.008669	0	0	0	-0.13053	-0.0069616	0.036032	-0.12128	0.07499	0.12213	-0.13395	-0.085434	0.11796
552	5.2643	-0.081711	0.054987	0.12462	-0.10544	0.15157	0.35205	-0.12148	0.17459	0.33649	-0.046816	-0.15316	-0.008669	-0.046816	0.031938	-0.008669	0	0	0	-0.13062	-0.0070501	0.036072	-0.12143	0.075144	0.12195	-0.13404	-0.085298	0.11821
553	5.2739	-0.081795	0.055132	0.12442	-0.10523	0.1528	0.35145	-0.12131	0.17571	0.33579	-0.046816	-0.15316	-0.008669	-0.046816	0.031938	-0.008669	0	0	0	-0.1307	-0.0071385	0.036112	-0.12158	0.075297	0.12176	-0.13413	-0.085162	0.11846
554	5.2834	-0.081879	0.055275	0.12422	-0.10501	0.15401	0.35085	-0.12113	0.17683	0.33509	-0.046816	-0.15316	-0.008669	-0.046816	0.031938	-0.008669	0	0	0	-0.13079	-0.0072268	0.036153	-0.12173	0.075447	0.12158	-0.13422	-0.085027	0.1187
555	5.293	-0.081963	0.055416	0.12402	-0.10479	0.15523	0.35025	-0.12095	0.17794	0.33438	-0.046816	-0.15316	-0.008669	-0.046816	0.031938	-0.008669	0	0	0	-0.13088	-0.0073151	0.036195	-0.12188	0.075596	0.1214	-0.13431	-0.084891	0.11895
556	5.3025	-0.082047	0.055555	0.12383	-0.10457	0.15643	0.34963	-0.12076	0.17905	0.33366	-0.046816	-0.15316	-0.008669	-0.046816	0.031938	-0.008669	0	0	0	-0.13096	-0.0074034	0.036236	-0.12203	0.075743	0.12122	-0.1344	-0.084756	0.11919
557	5.3121	-0.082131	0.055692	0.12363	-0.10435	0.15764	0.34901	-0.12058	0.18016	0.33294	-0.046816	-0.15316	-0.008669	-0.046816	0.031938	-0.008669	0	0	0	-0.13105	-0.0074917	0.036278	-0.12218	0.075888	0.12104	-0.13448	-0.084621	0.11944
558	5.3217	-0.082214	0.055827	0.12344	-0.10412	0.15883	0.34839	-0.12039	0.18125	0.33221	-0.046816	-0.15316	-0.008669	-0.046816	0.031938	-0.008669	0	0	0	-0.13113	-0.00758	0.036321	-0.12234	0.07603	0.12086	-0.13457	-0.084487	0.11968
559	5.3312	-0.082296	0.055959	0.12324	-0.1039	0.16003	0.34775	-0.1202	0.18235	0.33147	-0.046816	-0.15316	-0.008669	-0.046816	0.031938	-0.008669	0	0	0	-0.13122	-0.0076683	0.036363	-0.12249	0.076171	0.12069	-0.13465	-0.084354	0.11992
560	5.3408	-0.082378	0.056089	0.12305	-0.10367	0.16122	0.34711	-0.12001	0.18344	0.33073	-0.046816	-0.15316	-0.008669	-0.046816	0.031938	-0.008669	0	0	0	-0.1313	-0.0077567	0.036406	-0.12264	0.076309	0.12051	-0.13473	-0.08422	0.12016
561	5.3503	-0.082459	0.056217	0.12286	-0.10343	0.1624	0.34647	-0.11982	0.18453	0.32999	-0.046816	-0.15316	-0.008669	-0.046816	0.031938	-0.008669	0	0	0	-0.13139	-0.0078452	0.036449	-0.12279	0.076445	0.12034	-0.1348	-0.084088	0.1204
562	5.3599	-0.082539	0.056342	0.12267	-0.1032	0.16359	0.34581	-0.11962	0.18561	0.32924	-0.046816	-0.15316	-0.008669	-0.046816	0.031938	-0.008669	0	0	0	-0.13147	-0.0079338	0.036492	-0.12294	0.076579	0.12017	-0.13488	-0.083957	0.12065
563	5.3694	-0.082617	0.056465	0.12248	-0.10296	0.16477	0.34516	-0.11942	0.18669	0.32848	-0.046816	-0.15316	-0.008669	-0.046816	0.031938	-0.008669	0	0	0	-0.13156	-0.0080225	0.036536	-0.12309	0.07671	0.12	-0.13495	-0.083826	0.12088
564	5.379	-0.082694	0.056585	0.12229	-0.10272	0.16594	0.34449	-0.11922	0.18777	0.32771	-0.046816	-0.15316	-0.008669	-0.046816	0.031938	-0.008669	0	0	0	-0.13164	-0.0081113	0.036579	-0.12323	0.076838	0.11983	-0.13501	-0.083697	0.12112
565	5.3885	-0.082768	0.056703	0.12209	-0.10248	0.16712	0.34382	-0.11902	0.18884	0.32694	-0.046816	-0.15316	-0.008669	-0.046816	0.031938	-0.008669	0	0	0	-0.13173	-0.0082003	0.036623	-0.12338	0.076964	0.11966	-0.13508	-0.083568	0.12136
566	5.3981	-0.082841	0.056818	0.12191	-0.10223	0.16829	0.34314	-0.11881	0.18992	0.32617	-0.046816	-0.15316	-0.008669	-0.046816	0.031938	-0.008669	0	0	0	-0.13181	-0.0082894	0.036667	-0.12352	0.077087	0.1195	-0.13513	-0.083441	0.1216
567	5.4076	-0.082912	0.05693	0.12172	-0.10198	0.16946	0.34246	-0.1186	0.19099	0.32539	-0.046816	-0.15316	-0.008669	-0.046816	0.031938	-0.008669	0	0	0	-0.13189	-0.0083788	0.03671	-0.12366	0.077206	0.11934	-0.13519	-0.083315	0.12184
568	5.4172	-0.082981	0.057039	0.12153	-0.10172	0.17063	0.34177	-0.11839	0.19205	0.3246	-0.046816	-0.15316	-0.008669	-0.046816	0.031938	-0.008669	0	0	0	-0.13197	-0.0084683	0.036754	-0.1238	0.077323	0.11917	-0.13523	-0.08319	0.12207
569	5.4268	-0.083047	0.057146	0.12134	-0.10146	0.17179	0.34108	-0.11818	0.19312	0.32381	-0.046816	-0.15316	-0.008669	-0.046816	0.031938	-0.008669	0	0	0	-0.13205	-0.0085581	0.036798	-0.12394	0.077436	0.11901	-0.13528	-0.083066	0.12231
570	5.4363	-0.08311	0.057249	0.12115	-0.1012	0.17296	0.34038	-0.11796	0.19419	0.32301	-0.046816	-0.15316	-0.008669	-0.046816	0.031938	-0.008669	0	0	0	-0.13213	-0.0086481	0.036842	-0.12407	0.077547	0.11886	-0.13532	-0.082944	0.12254
571	5.4459	-0.083171	0.057349	0.12096	-0.10093	0.17412	0.33968	-0.11774	0.19525	0.32221	-0.046816	-0.15316	-0.008669	-0.046816	0.031938	-0.008669	0	0	0	-0.13221	-0.0087384	0.036885	-0.1242	0.077654	0.1187	-0.13535	-0.082824	0.12277
572	5.4554	-0.083228	0.057446	0.12077	-0.10065	0.17528	0.33897	-0.11751	0.19631	0.3214	-0.046816	-0.15316	-0.008669	-0.046816	0.031938	-0.008669	0	0	0	-0.13228	-0.008829	0.036929	-0.12433	0.077757	0.11855	-0.13537	-0.082705	0.12301
573	5.465	-0.083282	0.05754	0.12059	-0.10038	0.17645	0.33825	-0.11728	0.19737	0.32059	-0.046816	-0.15316	-0.008669	-0.046816	0.031938	-0.008669	0	0	0	-0.13236	-0.0089199	0.036972	-0.12446	0.077857	0.1184	-0.13539	-0.082588	0.12324
574	5.4745	-0.083333	0.057631	0.1204	-0.10009	0.17761	0.33753	-0.11705	0.19843	0.31977	-0.046816	-0.15316	-0.008669	-0.046816	0.031938	-0.008669	0	0	0	-0.13243	-0.0090111	0.037015	-0.12458	0.077954	0.11825	-0.13541	-0.082473	0.12347
575	5.4841	-0.08338	0.057719	0.12021	-0.099807	0.17877	0.33681	-0.11681	0.19949	0.31895	-0.046816	-0.15316	-0.008669	-0.046816	0.031938	-0.008669	0	0	0	-0.1325	-0.0091026	0.037059	-0.12469	0.078046	0.1181	-0.13541	-0.082359	0.1237
576	5.4936	-0.083423	0.057803	0.12002	-0.099514	0.17993	0.33608	-0.11657	0.20055	0.31812	-0.046816	-0.15316	-0.008669	-0.046816	0.031938	-0.008669	0	0	0	-0.13257	-0.0091945	0.037102	-0.12481	0.078135	0.11796	-0.13541	-0.082248	0.12393
577	5.5032	-0.083463	0.057884	0.11984	-0.099215	0.1811	0.33534	-0.11633	0.20161	0.31728	-0.046816	-0.15316	-0.008669	-0.046816	0.031938	-0.008669	0	0	0	-0.13264	-0.0092868	0.037144	-0.12492	0.07822	0.11781	-0.13541	-0.082139	0.12416
578	5.5127	-0.083498	0.057965	0.11965	-0.098903	0.18227	0.33459	-0.11607	0.20268	0.31643	-0.046816	-0.15316	-0.008669	-0.046816	0.031938	-0.008669	0	0	0	-0.13271	-0.009379	0.037188	-0.12502	0.078303	0.11767	-0.1354	-0.082032	0.12438
579	5.5223	-0.08353	0.058046	0.11946	-0.098573	0.18344	0.33382	-0.11579	0.20375	0.31557	-0.046816	-0.15316	-0.008669	-0.046816	0.031938	-0.008669	0	0	0	-0.13278	-0.0094712	0.037232	-0.12513	0.078385	0.11753	-0.13539	-0.081927	0.1246
580	5.5318	-0.083558	0.058128	0.11928	-0.098228	0.18462	0.33303	-0.1155	0.20483	0.31469	-0.046816	-0.15316	-0.008669	-0.046816	0.031938	-0.008669	0	0	0	-0.13284	-0.0095632	0.037277	-0.12524	0.078466	0.11739	-0.13538	-0.081824	0.12482
581	5.5414	-0.083583	0.058211	0.11909	-0.097867	0.18581	0.33222	-0.11519	0.20591	0.31379	-0.046816	-0.15316	-0.008669	-0.046816	0.031938	-0.008669	0	0	0	-0.13291	-0.0096552	0.037323	-0.12535	0.078546	0.11725	-0.13537	-0.081723	0.12504
582	5.551	-0.083605	0.058295	0.11891	-0.09749	0.187	0.3314	-0.11487	0.20699	0.31288	-0.046816	-0.15316	-0.008669	-0.046816	0.031938	-0.008669	0	0	0	-0.13297	-0.0097471	0.03737	-0.12545	0.078625	0.11711	-0.13536	-0.081624	0.12525
583	5.5605	-0.083624	0.058378	0.11872	-0.097099	0.18819	0.33055	-0.11453	0.20808	0.31195	-0.046816	-0.15316	-0.008669	-0.046816	0.031938	-0.008669	0	0	0	-0.13303	-0.0098389	0.037417	-0.12556	0.078703	0.11698	-0.13534	-0.081527	0.12547
584	5.5701	-0.083639	0.058462	0.11854	-0.096693	0.18939	0.32969	-0.11417	0.20917	0.31101	-0.046816	-0.15316	-0.008669	-0.046816	0.031938	-0.008669	0	0	0	-0.13309	-0.0099307	0.037466	-0.12566	0.07878	0.11684	-0.13533	-0.081431	0.12568
585	5.5796	-0.083652	0.058547	0.11835	-0.096272	0.19059	0.32882	-0.1138	0.21026	0.31006	-0.046816	-0.15316	-0.008669	-0.046816	0.031938	-0.008669	0	0	0	-0.13316	-0.010022	0.037516	-0.12577	0.078856	0.1167	-0.13532	-0.081337	0.12588
586	5.5892	-0.083663	0.058631	0.11817	-0.095838	0.1918	0.32792	-0.11342	0.21136	0.30909	-0.046816	-0.15316	-0.008669	-0.046816	0.031938	-0.008669	0	0	0	-0.13321	-0.010114	0.037566	-0.12587	0.078931	0.11657	-0.13531	-0.081245	0.12609
587	5.5987	-0.083671	0.058716	0.11799	-0.09539	0.193	0.32701	-0.11302	0.21245	0.30811	-0.046816	-0.15316	-0.008669	-0.046816	0.031938	-0.008669	0	0	0	-0.13327	-0.010206	0.037617	-0.12598	0.079005	0.11644	-0.13529	-0.081154	0.12629
588	5.6083	-0.083676	0.0588	0.11781	-0.094929	0.19421	0.32609	-0.11261	0.21355	0.30711	-0.046816	-0.15316	-0.008669	-0.046816	0.031938	-0.008669	0	0	0	-0.13333	-0.010297	0.03767	-0.12608	0.079078	0.1163	-0.13528	-0.081064	0.1265
